<svg width="1787" height="971" viewBox="0 0 1787 971" fill="none" xmlns="http://www.w3.org/2000/svg">
<rect x="1200" y="353" width="20" height="20" rx="10" fill="#944D0C"/>
<rect x="789" y="951" width="20" height="20" rx="10" fill="#944D0C"/>
<rect x="1667" y="716" width="34" height="34" rx="17" fill="#944D0C"/>
<rect x="562" y="421" width="34" height="34" rx="17" fill="#944D0C"/>
<rect y="210" width="20" height="20" rx="10" fill="#944D0C"/>
<rect x="185" y="672" width="20" height="20" rx="10" fill="#944D0C"/>
<rect x="1753" y="244" width="34" height="34" rx="17" fill="#944D0C"/>
<rect x="1724" y="149" width="20" height="20" rx="10" fill="#944D0C" fill-opacity="0.7"/>
<rect x="794" y="741" width="20" height="20" rx="10" fill="#944D0C" fill-opacity="0.7"/>
<rect x="1672" y="506" width="34" height="34" rx="17" fill="#944D0C" fill-opacity="0.7"/>
<rect x="567" y="211" width="34" height="34" rx="17" fill="#944D0C" fill-opacity="0.7"/>
<rect x="5" width="20" height="20" rx="10" fill="#944D0C" fill-opacity="0.7"/>
<rect x="190" y="462" width="20" height="20" rx="10" fill="#944D0C" fill-opacity="0.7"/>
<path d="M884 26C884 16.6112 891.611 9 901 9C910.389 9 918 16.6112 918 26C918 35.3888 910.389 43 901 43C891.611 43 884 35.3888 884 26Z" fill="#944D0C" fill-opacity="0.7"/>
</svg>
